<svg width="43" height="22" viewBox="0 0 43 22" fill="none" xmlns="http://www.w3.org/2000/svg">
<g id="logo">
<path id="Union" fill-rule="evenodd" clip-rule="evenodd" d="M19.943 1.33832V3.56885H11.4106V5.05526H18.771V7.28336H1.48701V5.05526H8.84503V3.56885H0.303467V1.33832H9.18613C9.62192 0.577206 10.4109 0.143239 11.1963 0.0309543L11.4106 0V1.33832H19.943ZM41.6528 2.07676C42.0837 2.49464 42.36 3.04641 42.4365 3.64176L42.4329 17.4704C42.4317 18.3536 42.2223 19.2241 41.8215 20.0112C41.4208 20.7982 40.84 21.4796 40.1265 22.0001L38.3809 20.1125C38.8341 19.8361 39.209 19.4481 39.4695 18.9855C39.7301 18.523 39.8676 18.0013 39.8691 17.4704V4.15524C39.8686 4.07771 39.8529 4.00104 39.8228 3.92961C39.7926 3.85817 39.7487 3.79338 39.6935 3.73892C39.6384 3.68447 39.573 3.64143 39.5011 3.61226C39.4293 3.58309 39.3524 3.56837 39.2749 3.56892H25.3637V18.3833C25.3637 19.9887 24.1814 20.8766 23.01 21.0447L22.7957 21.0751V1.34143H40.0646C40.662 1.39963 41.2219 1.65888 41.6528 2.07676ZM39.2245 6.07605L39.0424 6.01535C38.0562 5.68578 36.7694 5.91582 36.12 7.17462L35.354 8.65739L34.565 7.1291C34.3759 6.74914 34.0888 6.42649 33.7335 6.1944L33.7213 6.18712C33.387 5.98694 33.0046 5.88122 32.6149 5.88122C32.2252 5.88122 31.8428 5.98694 31.5084 6.18712L31.4702 6.21079C31.1295 6.44078 30.8535 6.75422 30.6684 7.12121V7.12546L29.8794 8.65497L29.1134 7.17219C28.464 5.91339 27.1778 5.68335 26.1903 6.01293L26.0083 6.07362L28.6084 11.1113L26.0083 16.1489L26.1903 16.2096C27.1778 16.5392 28.464 16.3092 29.1134 15.0504L29.8794 13.5676L30.6684 15.0971V15.1013C30.8535 15.4683 31.1295 15.7818 31.4702 16.0118L31.5084 16.0354C31.8428 16.2356 32.2252 16.3413 32.6149 16.3413C33.0046 16.3413 33.387 16.2356 33.7213 16.0354L33.7335 16.0282C34.0888 15.7961 34.3759 15.4734 34.565 15.0935L35.354 13.5646L36.1218 15.0522C36.7713 16.311 38.058 16.541 39.0443 16.2115L39.2263 16.1508L36.6256 11.1131L39.2245 6.07605ZM32.6161 13.9664L31.1449 11.1137L32.6161 8.26106L34.0879 11.1137L32.6161 13.9664ZM1.48702 8.77279H18.771L18.765 13.0645C18.6861 13.658 18.4088 14.2074 17.9781 14.6233C17.5475 15.0393 16.9889 15.2974 16.393 15.3557H4.05198V17.4703C4.05069 18.3535 3.84117 19.2239 3.44044 20.011C3.0397 20.798 2.45904 21.4794 1.74558 22L0 20.1124C0.453041 19.8358 0.827616 19.4478 1.08795 18.9852C1.34828 18.5227 1.48568 18.0011 1.48702 17.4703V8.77279ZM8.84503 11.0027H4.0544V13.127H8.84503V11.0027ZM16.1528 12.7816C16.1815 12.7136 16.1965 12.6406 16.197 12.5668L16.1952 11.0009H11.4106V13.1252H15.6313C15.7051 13.1257 15.7783 13.1116 15.8467 13.0838C15.915 13.056 15.9773 13.015 16.0298 12.9632C16.0823 12.9113 16.1241 12.8496 16.1528 12.7816Z" fill="#009DFF"/>
</g>
</svg>
