<svg width="28" height="28" viewBox="0 0 28 28" fill="none" xmlns="http://www.w3.org/2000/svg">
<path fill-rule="evenodd" clip-rule="evenodd" d="M8.625 7.17499C8.625 6.6227 9.07272 6.17499 9.625 6.17499H16.1C16.6523 6.17499 17.1 6.6227 17.1 7.17499C17.1 7.72727 16.6523 8.17499 16.1 8.17499H9.625C9.07272 8.17499 8.625 7.72727 8.625 7.17499Z" fill="#099DFD"/>
<path fill-rule="evenodd" clip-rule="evenodd" d="M7.39999 10.85C7.39999 10.2977 7.84771 9.84998 8.39999 9.84998H17.325C17.8773 9.84998 18.325 10.2977 18.325 10.85C18.325 11.4023 17.8773 11.85 17.325 11.85H8.39999C7.84771 11.85 7.39999 11.4023 7.39999 10.85Z" fill="#099DFD"/>
<path fill-rule="evenodd" clip-rule="evenodd" d="M7.92499 14.7C7.92499 14.1477 8.3727 13.7 8.92499 13.7H16.8C17.3523 13.7 17.8 14.1477 17.8 14.7C17.8 15.2523 17.3523 15.7 16.8 15.7H8.92499C8.3727 15.7 7.92499 15.2523 7.92499 14.7Z" fill="#099DFD"/>
<path fill-rule="evenodd" clip-rule="evenodd" d="M7.22501 18.375C7.22501 17.8227 7.67272 17.375 8.22501 17.375H17.5C18.0523 17.375 18.5 17.8227 18.5 18.375C18.5 18.9273 18.0523 19.375 17.5 19.375H8.22501C7.67272 19.375 7.22501 18.9273 7.22501 18.375Z" fill="#099DFD"/>
<path fill-rule="evenodd" clip-rule="evenodd" d="M3.20001 2.45001C3.20001 1.89773 3.64773 1.45001 4.20001 1.45001H21.525C22.0773 1.45001 22.525 1.89773 22.525 2.45001C22.525 3.0023 22.0773 3.45001 21.525 3.45001H4.20001C3.64773 3.45001 3.20001 3.0023 3.20001 2.45001Z" fill="#099DFD"/>
<path fill-rule="evenodd" clip-rule="evenodd" d="M3.20001 23.1C3.20001 22.5477 3.64773 22.1 4.20001 22.1H21.525C22.0773 22.1 22.525 22.5477 22.525 23.1C22.525 23.6523 22.0773 24.1 21.525 24.1H4.20001C3.64773 24.1 3.20001 23.6523 3.20001 23.1Z" fill="#099DFD"/>
<path fill-rule="evenodd" clip-rule="evenodd" d="M21.525 1.45001C22.0773 1.45001 22.525 1.89773 22.525 2.45001V23.1C22.525 23.6523 22.0773 24.1 21.525 24.1C20.9727 24.1 20.525 23.6523 20.525 23.1V2.45001C20.525 1.89773 20.9727 1.45001 21.525 1.45001Z" fill="#099DFD"/>
<path fill-rule="evenodd" clip-rule="evenodd" d="M5.64999 25.55C5.64999 24.9977 6.09771 24.55 6.64999 24.55H23.975C24.5273 24.55 24.975 24.9977 24.975 25.55C24.975 26.1023 24.5273 26.55 23.975 26.55H6.64999C6.09771 26.55 5.64999 26.1023 5.64999 25.55Z" fill="#099DFD"/>
<path fill-rule="evenodd" clip-rule="evenodd" d="M23.975 3.90002C24.5273 3.90002 24.975 4.34774 24.975 4.90002V25.55C24.975 26.1023 24.5273 26.55 23.975 26.55C23.4227 26.55 22.975 26.1023 22.975 25.55V4.90002C22.975 4.34774 23.4227 3.90002 23.975 3.90002Z" fill="#099DFD"/>
<path fill-rule="evenodd" clip-rule="evenodd" d="M4.02499 1.45001C4.57728 1.45001 5.02499 1.89773 5.02499 2.45001V23.1C5.02499 23.6523 4.57728 24.1 4.02499 24.1C3.47271 24.1 3.02499 23.6523 3.02499 23.1V2.45001C3.02499 1.89773 3.47271 1.45001 4.02499 1.45001Z" fill="#099DFD"/>
</svg>
