<svg width="28" height="28" viewBox="0 0 28 28" fill="none" xmlns="http://www.w3.org/2000/svg">
<path fill-rule="evenodd" clip-rule="evenodd" d="M14.0001 5.29999C12.9119 5.29888 11.8359 5.52907 10.8438 5.97531ZM14.0001 5.29999C15.0882 5.30084 16.164 5.5324 17.1557 5.97941C18.1475 6.42648 19.0328 7.07886 19.7529 7.89344L19.7571 7.89824C20.9775 9.29676 21.65 11.0887 21.65 12.9436C21.65 14.7985 20.9775 16.5904 19.7571 17.9889L19.7505 17.9965C19.547 18.225 19.331 18.4423 19.1036 18.6473L19.0986 18.6518C18.4544 19.2246 18.1925 19.8037 18.1859 20.4473V21.35C18.1859 21.9023 17.7382 22.35 17.1859 22.35C16.6336 22.35 16.1859 21.9023 16.1859 21.35V20.4341C16.1971 19.1322 16.7754 18.0424 17.7667 17.1598C17.9377 17.0054 18.1002 16.842 18.2535 16.6701C19.1543 15.636 19.65 14.3127 19.65 12.9436C19.65 11.5739 19.1538 10.25 18.2523 9.21564C17.7205 8.61469 17.0666 8.13304 16.3338 7.80274C15.6001 7.47198 14.8041 7.30058 13.9987 7.29999C13.1938 7.29914 12.3977 7.46939 11.6642 7.79931C10.9316 8.12881 10.2779 8.60997 9.74647 9.21064C8.84332 10.2464 8.3474 11.573 8.35002 12.9448C8.35263 14.3161 8.85324 15.6404 9.75973 16.6726C9.91089 16.8411 10.0716 17.0008 10.2412 17.1509L10.2432 17.1527C11.2435 18.0436 11.8414 19.1547 11.8414 20.4828V20.4867L11.838 21.3389C11.8358 21.8912 11.3864 22.3371 10.8341 22.3349C10.2818 22.3328 9.83584 21.8833 9.83801 21.331L9.84136 20.4828C9.84136 20.4822 9.84136 20.4816 9.84136 20.481C9.84086 19.8284 9.57107 19.2327 8.9141 18.6472C8.68618 18.4453 8.47012 18.2304 8.26699 18.0036L8.26101 17.9969C7.03274 16.6007 6.35356 14.807 6.35002 12.9486C6.34648 11.0902 7.01884 9.29403 8.24178 7.8931L8.24578 7.88851C8.96581 7.07375 9.85153 6.42159 10.8438 5.97531" fill="#FF8D3A"/>
<path fill-rule="evenodd" clip-rule="evenodd" d="M9.85001 21.35C9.85001 20.7977 10.2977 20.35 10.85 20.35H17.15C17.7023 20.35 18.15 20.7977 18.15 21.35C18.15 21.9023 17.7023 22.35 17.15 22.35H10.85C10.2977 22.35 9.85001 21.9023 9.85001 21.35Z" fill="#FF8D3A"/>
<path fill-rule="evenodd" clip-rule="evenodd" d="M10.1 23.275C10.1 22.8608 10.4358 22.525 10.85 22.525H17.15C17.5642 22.525 17.9 22.8608 17.9 23.275C17.9 23.6892 17.5642 24.025 17.15 24.025H10.85C10.4358 24.025 10.1 23.6892 10.1 23.275Z" fill="#FF8D3A"/>
<path fill-rule="evenodd" clip-rule="evenodd" d="M10.1 25.025C10.1 24.6108 10.4358 24.275 10.85 24.275H17.15C17.5642 24.275 17.9 24.6108 17.9 25.025C17.9 25.4392 17.5642 25.775 17.15 25.775H10.85C10.4358 25.775 10.1 25.4392 10.1 25.025Z" fill="#FF8D3A"/>
<path fill-rule="evenodd" clip-rule="evenodd" d="M11.15 26.95C11.15 26.5358 11.4858 26.2 11.9 26.2H15.925C16.3392 26.2 16.675 26.5358 16.675 26.95C16.675 27.3642 16.3392 27.7 15.925 27.7H11.9C11.4858 27.7 11.15 27.3642 11.15 26.95Z" fill="#FF8D3A"/>
<path fill-rule="evenodd" clip-rule="evenodd" d="M14 0.0499878C14.5523 0.0499878 15 0.497703 15 1.04999V4.19999C15 4.75227 14.5523 5.19999 14 5.19999C13.4477 5.19999 13 4.75227 13 4.19999V1.04999C13 0.497703 13.4477 0.0499878 14 0.0499878Z" fill="#FF8D3A"/>
<path fill-rule="evenodd" clip-rule="evenodd" d="M4.86521 3.87171C5.23981 3.46589 5.87247 3.44059 6.27829 3.81519L8.55329 5.91519C8.95911 6.28979 8.98442 6.92245 8.60981 7.32827C8.23521 7.73409 7.60255 7.7594 7.19673 7.3848L4.92173 5.2848C4.51591 4.91019 4.4906 4.27753 4.86521 3.87171Z" fill="#FF8D3A"/>
<path fill-rule="evenodd" clip-rule="evenodd" d="M23.1071 3.84288C23.4976 4.23341 23.4976 4.86657 23.1071 5.25709L20.8321 7.53209C20.4416 7.92262 19.8084 7.92262 19.4179 7.53209C19.0274 7.14157 19.0274 6.5084 19.4179 6.11788L21.6929 3.84288C22.0834 3.45236 22.7166 3.45236 23.1071 3.84288Z" fill="#FF8D3A"/>
<path fill-rule="evenodd" clip-rule="evenodd" d="M21.75 12.95C21.75 12.3977 22.1977 11.95 22.75 11.95H25.9C26.4523 11.95 26.9 12.3977 26.9 12.95C26.9 13.5023 26.4523 13.95 25.9 13.95H22.75C22.1977 13.95 21.75 13.5023 21.75 12.95Z" fill="#FF8D3A"/>
<path fill-rule="evenodd" clip-rule="evenodd" d="M1.10001 12.95C1.10001 12.3977 1.54772 11.95 2.10001 11.95H5.25001C5.80229 11.95 6.25001 12.3977 6.25001 12.95C6.25001 13.5023 5.80229 13.95 5.25001 13.95H2.10001C1.54772 13.95 1.10001 13.5023 1.10001 12.95Z" fill="#FF8D3A"/>
</svg>
