<svg width="48" height="48" viewBox="0 0 48 48" fill="none" xmlns="http://www.w3.org/2000/svg">
<rect width="48" height="48" fill="#1E1E1E"/>
<g id="ShengWangIM_doc_hmpg_style2">
<g clip-path="url(#clip0_2710_4767)">
<rect x="-384" y="-766" width="1548" height="4067" rx="4" fill="white"/>
<g id="Frame 1321317699">
<g id="Frame 1321317698">
<g id="userguide">
<g id="items">
<g id="item_hovered">
<rect x="-209.5" y="-23.5" width="281" height="229" rx="19.5" fill="#F8F8F8"/>
<rect x="-209.5" y="-23.5" width="281" height="229" rx="19.5" stroke="#00B3FF"/>
<g id="pltfm_icon">
<rect width="48" height="48" rx="10" fill="#34A853"/>
<g id="g5">
<g id="Clip path group">
<mask id="mask0_2710_4767" style="mask-type:luminance" maskUnits="userSpaceOnUse" x="10" y="15" width="29" height="17">
<g id="SVGID_00000099632906935527403410000002792636259776861355_">
<path id="use1" d="M38.1871 15H10V31.4176H38.1871V15Z" fill="white"/>
</g>
</mask>
<g mask="url(#mask0_2710_4767)">
<g id="g4">
<path id="path2" d="M38.11 30.7951C38.1015 30.7354 38.093 30.6842 38.0845 30.6245C38.0248 30.2748 37.9565 29.9251 37.8712 29.5755C37.7263 28.9699 37.5386 28.3815 37.3169 27.8186C37.1293 27.3324 36.916 26.8634 36.6772 26.4113C36.3702 25.8314 36.0291 25.2685 35.6453 24.7312C35.1762 24.0745 34.656 23.469 34.0931 22.8976C33.8543 22.6588 33.6069 22.4285 33.3511 22.2153C32.7967 21.7377 32.2082 21.3027 31.5857 20.9189C31.5942 20.9104 31.5942 20.9019 31.6027 20.8933C31.8841 20.3987 32.1741 19.9125 32.4556 19.4179C32.737 18.9403 33.0099 18.4627 33.2914 17.9765C33.4875 17.6354 33.6922 17.2857 33.8884 16.9446C33.9396 16.8593 33.9737 16.7825 33.9993 16.6887C34.076 16.4499 34.0845 16.1941 34.0163 15.9553C33.9993 15.8956 33.9822 15.8359 33.9566 15.7847C33.931 15.725 33.9054 15.6738 33.8713 15.6226C33.769 15.4435 33.6155 15.29 33.4193 15.1792C33.2487 15.0768 33.0611 15.0171 32.8649 15C32.7797 14.9915 32.7029 14.9915 32.6176 15C32.5494 15.0086 32.4812 15.0171 32.4215 15.0342C32.1827 15.0939 31.9694 15.2218 31.7989 15.4094C31.7392 15.4777 31.6795 15.5544 31.6368 15.6312C31.4407 15.9723 31.236 16.322 31.0398 16.6631L30.204 18.1045C29.9226 18.5991 29.6326 19.0853 29.3512 19.5799C29.317 19.6311 29.2915 19.6908 29.2573 19.742C29.2147 19.7249 29.1721 19.7078 29.1294 19.6908C27.5601 19.0938 25.8629 18.7697 24.0805 18.7697C24.0293 18.7697 23.9866 18.7697 23.9355 18.7697C22.3577 18.7868 20.8396 19.0597 19.4153 19.5543C19.2533 19.614 19.0912 19.6737 18.9292 19.7334C18.9036 19.6823 18.8695 19.6311 18.8439 19.5799C18.5624 19.0853 18.2725 18.5991 17.991 18.1045C17.7096 17.6269 17.4367 17.1493 17.1552 16.6631C16.9591 16.322 16.7544 15.9723 16.5582 15.6312C16.507 15.5459 16.4559 15.4777 16.3962 15.4094C16.2256 15.2218 16.0039 15.0939 15.7736 15.0342C15.7054 15.0171 15.6371 15.0086 15.5774 15C15.4921 14.9915 15.4154 14.9915 15.3301 15C15.1339 15.0171 14.9463 15.0768 14.7757 15.1792C14.5881 15.29 14.4346 15.4435 14.3237 15.6226C14.2896 15.6738 14.264 15.725 14.2384 15.7847C14.2128 15.8444 14.1958 15.8956 14.1787 15.9553C14.119 16.1941 14.119 16.4414 14.1958 16.6887C14.2214 16.774 14.264 16.8593 14.3067 16.9446C14.5028 17.2857 14.7075 17.6354 14.9037 17.9765C15.1851 18.4541 15.458 18.9317 15.7395 19.4179C16.0209 19.9125 16.3109 20.3987 16.5923 20.8933L16.6009 20.9019C16.0294 21.2601 15.4836 21.6524 14.9634 22.0873C14.6563 22.3432 14.3578 22.6161 14.0764 22.8976C13.505 23.4604 12.9933 24.0745 12.5242 24.7312C12.1404 25.2685 11.7992 25.8229 11.4922 26.4113C11.2534 26.8634 11.0402 27.3324 10.8526 27.8186C10.6308 28.39 10.4432 28.9785 10.2982 29.5755C10.2129 29.9166 10.1447 30.2663 10.085 30.6245C10.0765 30.6842 10.0679 30.7354 10.0594 30.7951C10.0253 30.9997 9.99971 31.2044 9.97412 31.4176H38.1612C38.1612 31.2044 38.1356 30.9997 38.11 30.7951Z" fill="white"/>
<path id="path3" d="M31.4233 27.5116C31.9861 27.1363 32.0714 26.2664 31.6024 25.5756C31.1418 24.8762 30.306 24.6204 29.7431 24.9956C29.1802 25.3709 29.0949 26.2408 29.564 26.9316C30.0246 27.631 30.8604 27.8868 31.4233 27.5116Z" fill="#202124"/>
<path id="path4" d="M18.6476 26.9402C19.1082 26.2408 19.0314 25.3794 18.4685 25.0042C17.9057 24.6289 17.0698 24.8848 16.6093 25.5841C16.1488 26.2835 16.2255 27.1449 16.7884 27.5201C17.3513 27.8954 18.1786 27.631 18.6476 26.9402Z" fill="#202124"/>
</g>
</g>
</g>
</g>
</g>
</g>
</g>
</g>
</g>
</g>
</g>
</g>
<defs>
<clipPath id="clip0_2710_4767">
<rect x="-384" y="-766" width="1548" height="4067" rx="4" fill="white"/>
</clipPath>
</defs>
</svg>
