<svg width="48" height="48" viewBox="0 0 48 48" fill="none" xmlns="http://www.w3.org/2000/svg">
<g id="pltfm_icon">
<rect width="48" height="48" rx="10" fill="#2BA245"/>
<path id="Vector" d="M35.1841 22.955C34.3342 24.3413 33.0031 25.3526 31.4544 25.7885H31.3378C31.0944 25.8585 30.8429 25.895 30.59 25.8971C29.4827 25.8971 28.8611 25.1369 29.1913 24.2088C29.3429 23.8435 29.5722 23.5168 29.8627 23.2522C30.1532 22.9876 30.4978 22.7917 30.8716 22.6785C31.4467 22.5023 31.9542 22.1496 32.3245 21.6689C32.6948 21.1882 32.91 20.6029 32.9405 19.9931C32.9405 18.3838 31.3961 17.0312 29.4827 17.0312C28.6398 16.9628 27.8045 17.2357 27.1587 17.7904C26.5128 18.3452 26.1088 19.1369 26.0346 19.9931V28.9577C26.0164 30.0105 25.7224 31.0394 25.1829 31.9383C24.6434 32.8372 23.878 33.5737 22.9654 34.0719C21.9156 34.6824 20.7267 35.0024 19.5173 35C15.9236 35 13 32.2849 13 28.9577C12.9971 27.9127 13.2796 26.8874 13.8159 25.9958C14.6726 24.6076 16.0104 23.5965 17.5651 23.1623C17.8328 23.0794 18.1108 23.0362 18.3906 23.034C19.4979 23.034 20.1292 23.7942 19.7893 24.742C19.6415 25.0812 19.4276 25.3865 19.1605 25.6393C18.8934 25.8922 18.5786 26.0873 18.2352 26.2131L17.9827 26.3118C17.4415 26.5051 16.9685 26.8565 16.6229 27.3219C16.2773 27.7873 16.0746 28.3461 16.0401 28.9281C16.1118 29.7853 16.5152 30.5786 17.1616 31.1339C17.808 31.6891 18.6447 31.9611 19.4882 31.89C20.3316 31.9611 21.1684 31.6891 21.8148 31.1339C22.4612 30.5786 22.8645 29.7853 22.9362 28.9281V20.0326C22.9545 18.9798 23.2485 17.9509 23.788 17.052C24.3275 16.1531 25.0929 15.4166 26.0055 14.9184C27.0653 14.3076 28.2645 13.9909 29.4827 14.0002C33.0764 14.0002 36 16.7153 36 20.0424C36 21.0716 35.7174 22.0802 35.1841 22.955Z" fill="white"/>
</g>
</svg>
