<svg width="48" height="48" viewBox="0 0 48 48" fill="none" xmlns="http://www.w3.org/2000/svg">
<rect width="48" height="48" fill="#44D1FD"/>
<path d="M26.157 11.0089L34.2133 11L20.697 24.5094L17.1744 28.0122L13.1665 23.9994L26.157 11.0089ZM26.082 23.0711C26.1866 22.933 26.379 23.0011 26.525 22.9833L34.2064 22.9853L27.2056 29.9792L23.177 25.9752L26.082 23.0711Z" fill="white"/>
<path d="M19.1611 29.9861L23.177 25.9752L27.2056 29.9792L27.2224 29.997L23.1779 34.0039L19.1611 29.9861Z" fill="white"/>
<path d="M23.1782 34.0039L27.2227 29.997L34.2096 36.9909C31.5778 36.9968 28.947 36.9889 26.3161 36.9948C26.1662 37.0284 26.0734 36.8912 25.9778 36.8064L23.1782 34.0039Z" fill="white"/>
</svg>
