<svg width="48" height="48" viewBox="0 0 48 48" fill="none" xmlns="http://www.w3.org/2000/svg">
<g id="pltfm_icon">
<rect width="48" height="48" rx="10" fill="black"/>
<g id="g2344">
<g id="g2330">
<path id="path2308" d="M12.9238 11.9473H14.8142V15.8143H19.0289V11.9473H20.9192V21.6284H19.0289V17.545H14.8142V21.6284H12.9238V11.9473Z" fill="white"/>
<path id="path2312" d="M26.0161 11.9473H27.8784L30.945 17.0718H31.057L34.1235 11.9473H35.9999V21.6284H34.1235V16.8554L34.2356 15.2329H34.1235L31.5751 19.5732H30.4409L27.8784 15.2329H27.7664L27.8784 16.8554V21.6284H26.0161V11.9473Z" fill="white"/>
</g>
<path id="path2318" d="M31.148 35.5391C30.709 35.5391 30.289 35.4805 29.8882 35.3633C29.4874 35.2461 29.1199 35.0703 28.7859 34.836C28.4519 34.6016 28.1608 34.3177 27.9126 33.9841C27.6645 33.6416 27.4688 33.245 27.3257 32.7943L29.1438 32.1182C29.2774 32.605 29.5112 33.0106 29.8452 33.3351C30.1793 33.6506 30.6183 33.8084 31.1623 33.8084C31.3627 33.8084 31.5536 33.7858 31.7349 33.7408C31.9258 33.6867 32.0928 33.6146 32.236 33.5244C32.3887 33.4253 32.508 33.3036 32.5938 33.1594C32.6797 33.0151 32.7227 32.8484 32.7227 32.6591C32.7227 32.4788 32.6893 32.3165 32.6225 32.1723C32.5557 32.0281 32.4411 31.8929 32.2789 31.7667C32.1262 31.6405 31.921 31.5188 31.6633 31.4016C31.4152 31.2844 31.105 31.1627 30.7328 31.0365L30.1029 30.8202C29.8262 30.7301 29.5446 30.6084 29.2583 30.4551C28.9815 30.3019 28.7286 30.1171 28.4996 29.9008C28.2705 29.6844 28.0797 29.432 27.927 29.1436C27.7838 28.8461 27.7122 28.5126 27.7122 28.143C27.7122 27.7644 27.7886 27.4129 27.9413 27.0884C28.1035 26.7549 28.3278 26.4664 28.6141 26.223C28.91 25.9706 29.2583 25.7768 29.6591 25.6416C30.0695 25.4974 30.5228 25.4253 31.0191 25.4253C31.5345 25.4253 31.9783 25.4929 32.3505 25.6281C32.7322 25.7543 33.052 25.9211 33.3096 26.1284C33.5769 26.3267 33.7916 26.5475 33.9538 26.7909C34.1161 27.0343 34.2354 27.2642 34.3117 27.4805L32.6082 28.1566C32.5127 27.8861 32.3362 27.6427 32.0785 27.4264C31.8303 27.2101 31.4868 27.1019 31.0478 27.1019C30.6278 27.1019 30.2795 27.1966 30.0027 27.3859C29.7259 27.5661 29.5876 27.805 29.5876 28.1025C29.5876 28.3909 29.7212 28.6388 29.9884 28.8461C30.2556 29.0444 30.6803 29.2382 31.2625 29.4275L31.9067 29.6304C32.3171 29.7656 32.6893 29.9233 33.0233 30.1036C33.3669 30.2749 33.658 30.4822 33.8966 30.7256C34.1447 30.9689 34.3308 31.2484 34.4549 31.5639C34.5885 31.8704 34.6553 32.2264 34.6553 32.632C34.6553 33.1368 34.5456 33.574 34.326 33.9436C34.1161 34.3041 33.8441 34.6016 33.51 34.836C33.176 35.0703 32.799 35.2461 32.3791 35.3633C31.9592 35.4805 31.5488 35.5391 31.148 35.5391Z" fill="white"/>
<g id="g2337">
<path id="path2314" d="M16.9266 35.5391C16.2222 35.5391 15.5663 35.4084 14.9588 35.147C14.3601 34.8856 13.8406 34.5295 13.4004 34.0788C12.9602 33.6191 12.6124 33.0827 12.3571 32.4698C12.1106 31.8478 11.9873 31.1853 11.9873 30.4822C11.9873 29.7791 12.1106 29.1211 12.3571 28.5081C12.6124 27.8861 12.9602 27.3498 13.4004 26.8991C13.8406 26.4394 14.3601 26.0788 14.9588 25.8174C15.5663 25.556 16.2222 25.4253 16.9266 25.4253C17.6309 25.4253 18.2824 25.556 18.8811 25.8174C19.4886 26.0788 20.0125 26.4394 20.4527 26.8991C20.8929 27.3498 21.2363 27.8861 21.4828 28.5081C21.7381 29.1211 21.8658 29.7791 21.8658 30.4822C21.8658 31.1853 21.7381 31.8478 21.4828 32.4698C21.2363 33.0827 20.8929 33.6191 20.4527 34.0788C20.0125 34.5295 19.4886 34.8856 18.8811 35.147C18.2824 35.4084 17.6309 35.5391 16.9266 35.5391ZM16.9266 33.8084C17.3668 33.8084 17.7762 33.7272 18.1548 33.565C18.5422 33.4027 18.8767 33.1774 19.1584 32.8889C19.449 32.6005 19.6735 32.2534 19.832 31.8478C19.9993 31.4332 20.0829 30.978 20.0829 30.4822C20.0829 29.9864 19.9993 29.5357 19.832 29.1301C19.6735 28.7154 19.449 28.3639 19.1584 28.0754C18.8767 27.787 18.5422 27.5616 18.1548 27.3994C17.7762 27.2371 17.3668 27.156 16.9266 27.156C16.4863 27.156 16.0725 27.2371 15.6851 27.3994C15.3065 27.5616 14.972 27.787 14.6814 28.0754C14.3997 28.3639 14.1752 28.7154 14.0079 29.1301C13.8494 29.5357 13.7702 29.9864 13.7702 30.4822C13.7702 30.978 13.8494 31.4332 14.0079 31.8478C14.1752 32.2534 14.3997 32.6005 14.6814 32.8889C14.972 33.1774 15.3065 33.4027 15.6851 33.565C16.0725 33.7272 16.4863 33.8084 16.9266 33.8084Z" fill="white"/>
<path id="rect2332" d="M20.4219 36.4552H13.3281V38.1032H20.4219V36.4552Z" fill="#5B8AEE"/>
</g>
</g>
</g>
</svg>
