<svg width="48" height="48" viewBox="0 0 48 48" fill="none" xmlns="http://www.w3.org/2000/svg">
<rect width="48" height="48" rx="10" fill="white"/>
<path d="M33.4926 18.8643C33.3418 18.9813 30.6792 20.4816 30.6792 23.8178C30.6792 27.6766 34.0673 29.0417 34.1687 29.0755C34.1531 29.1587 33.6305 30.9451 32.3823 32.7653C31.2694 34.367 30.1071 35.9662 28.3389 35.9662C26.5708 35.9662 26.1157 34.9391 24.0745 34.9391C22.0853 34.9391 21.378 36 19.7607 36C18.1433 36 17.0148 34.5179 15.7173 32.6977C14.2143 30.5603 13 27.2397 13 24.0882C13 19.0333 16.2867 16.3524 19.5215 16.3524C21.2402 16.3524 22.673 17.4809 23.7521 17.4809C24.7792 17.4809 26.3809 16.2848 28.3363 16.2848C29.0774 16.2848 31.7401 16.3524 33.4926 18.8643ZM27.408 14.1448C28.2167 13.1853 28.7888 11.854 28.7888 10.5227C28.7888 10.338 28.7732 10.1508 28.7394 10C27.4236 10.0494 25.8583 10.8763 24.9144 11.971C24.1733 12.8135 23.4816 14.1448 23.4816 15.4943C23.4816 15.6972 23.5155 15.9 23.5311 15.965C23.6143 15.9806 23.7495 15.9988 23.8847 15.9988C25.0652 15.9988 26.55 15.2083 27.408 14.1448Z" fill="black"/>
</svg>
