<svg width="48" height="48" viewBox="0 0 48 48" fill="none" xmlns="http://www.w3.org/2000/svg">
<rect width="48" height="48" fill="#3ECAF0"/>
<g clip-path="url(#clip0_2770_1441)">
<path d="M24 26.1184C25.3784 26.1184 26.4957 25.001 26.4957 23.6227C26.4957 22.2444 25.3784 21.127 24 21.127C22.6217 21.127 21.5044 22.2444 21.5044 23.6227C21.5044 25.001 22.6217 26.1184 24 26.1184Z" fill="white"/>
<path fill-rule="evenodd" clip-rule="evenodd" d="M11.9963 22.0036C11.3805 22.5595 11.1089 23.1075 11.1089 23.6227C11.1089 24.1379 11.3805 24.6859 11.9963 25.2418C12.6121 25.7976 13.5312 26.3212 14.7095 26.7711C17.0626 27.6695 20.3472 28.2357 24.0002 28.2357C27.6531 28.2357 30.9378 27.6695 33.2909 26.7711C34.4692 26.3212 35.3883 25.7976 36.0041 25.2418C36.6199 24.6859 36.8915 24.1379 36.8915 23.6227C36.8915 23.1075 36.6199 22.5595 36.0041 22.0036C35.3883 21.4477 34.4692 20.9242 33.2909 20.4743C30.9378 19.5759 27.6531 19.0097 24.0002 19.0097C20.3472 19.0097 17.0626 19.5759 14.7095 20.4743C13.5312 20.9242 12.6121 21.4477 11.9963 22.0036ZM14.3528 19.5401C16.8463 18.588 20.2573 18.0097 24.0002 18.0097C27.7431 18.0097 31.1541 18.588 33.6476 19.5401C34.8927 20.0155 35.9347 20.5938 36.6742 21.2613C37.4136 21.9288 37.8915 22.726 37.8915 23.6227C37.8915 24.5194 37.4136 25.3166 36.6742 25.9841C35.9347 26.6516 34.8927 27.2299 33.6476 27.7053C31.1541 28.6574 27.7431 29.2357 24.0002 29.2357C20.2573 29.2357 16.8463 28.6574 14.3528 27.7053C13.1077 27.2299 12.0657 26.6516 11.3262 25.9841C10.5868 25.3166 10.1089 24.5194 10.1089 23.6227C10.1089 22.726 10.5868 21.9288 11.3262 21.2613C12.0657 20.5938 13.1077 20.0155 14.3528 19.5401Z" fill="white"/>
<path fill-rule="evenodd" clip-rule="evenodd" d="M19.4004 12.4175C18.611 12.1621 18.0007 12.2009 17.5545 12.4585C17.1083 12.7161 16.7695 13.2253 16.596 14.0365C16.4225 14.8478 16.4287 15.9055 16.6282 17.1509C17.0267 19.638 18.1787 22.7657 20.0051 25.9292C21.8316 29.0928 23.9643 31.6542 25.9189 33.2429C26.8977 34.0384 27.8106 34.5726 28.5999 34.8279C29.3893 35.0833 29.9996 35.0445 30.4458 34.7869C30.892 34.5293 31.2307 34.0201 31.4043 33.2088C31.5778 32.3976 31.5716 31.3399 31.3721 30.0945C30.9736 27.6074 29.8216 24.4797 27.9952 21.3162C26.1687 18.1526 24.036 15.5912 22.0813 14.0025C21.1026 13.207 20.1896 12.6728 19.4004 12.4175ZM22.712 13.2265C24.7833 14.9099 26.9897 17.5748 28.8612 20.8162C30.7326 24.0576 31.9372 27.3008 32.3595 29.9363C32.5703 31.2523 32.5905 32.4438 32.3821 33.418C32.1738 34.3921 31.7224 35.2046 30.9458 35.6529C30.1692 36.1013 29.2399 36.086 28.2921 35.7794C27.3442 35.4727 26.3225 34.8595 25.2882 34.0189C23.2169 32.3355 21.0105 29.6706 19.1391 26.4292C17.2677 23.1878 16.0631 19.9446 15.6408 17.3091C15.43 15.9931 15.4098 14.8016 15.6181 13.8274C15.8265 12.8532 16.2779 12.0408 17.0545 11.5925C17.8311 11.1441 18.7603 11.1594 19.7082 11.466C20.656 11.7727 21.6778 12.3859 22.712 13.2265Z" fill="white"/>
<path fill-rule="evenodd" clip-rule="evenodd" d="M31.4046 14.0366C31.231 13.2253 30.8923 12.7161 30.4461 12.4585C29.9999 12.2009 29.3896 12.1621 28.6002 12.4175C27.8109 12.6728 26.898 13.207 25.9192 14.0025C23.9646 15.5912 21.8319 18.1526 20.0054 21.3162C18.179 24.4797 17.027 27.6074 16.6285 30.0945C16.429 31.3399 16.4228 32.3976 16.5963 33.2089C16.7698 34.0201 17.1086 34.5293 17.5548 34.7869C18.001 35.0445 18.6113 35.0833 19.4006 34.8279C20.1899 34.5726 21.1029 34.0384 22.0816 33.2429C24.0363 31.6542 26.169 29.0928 27.9955 25.9292C29.8219 22.7657 30.9739 19.638 31.3724 17.1509C31.5719 15.9055 31.5781 14.8478 31.4046 14.0366ZM32.3598 17.3091C31.9375 19.9446 30.7329 23.1878 28.8615 26.4292C26.99 29.6706 24.7836 32.3355 22.7123 34.0189C21.6781 34.8595 20.6563 35.4727 19.7085 35.7794C18.7606 36.086 17.8314 36.1013 17.0548 35.6529C16.2782 35.2046 15.8268 34.3922 15.6184 33.418C15.4101 32.4438 15.4303 31.2523 15.6411 29.9363C16.0634 27.3008 17.268 24.0576 19.1394 20.8162C21.0108 17.5748 23.2172 14.9099 25.2885 13.2265C26.3228 12.3859 27.3445 11.7727 28.2924 11.466C29.2402 11.1594 30.1695 11.1441 30.9461 11.5925C31.7227 12.0408 32.1741 12.8533 32.3824 13.8274C32.5908 14.8016 32.5706 15.9931 32.3598 17.3091Z" fill="white"/>
</g>
<defs>
<clipPath id="clip0_2770_1441">
<rect width="28" height="28" fill="white" transform="translate(10 10)"/>
</clipPath>
</defs>
</svg>
