<svg width="48" height="48" viewBox="0 0 48 48" fill="none" xmlns="http://www.w3.org/2000/svg">
<g id="pltfm_icon">
<rect width="48" height="48" rx="10" fill="#81AF20"/>
<path id="Union" fill-rule="evenodd" clip-rule="evenodd" d="M18.0715 12.9275H16.1199C14.9836 12.9275 14.119 13.2733 13.5261 14.0144C12.9826 14.6814 12.7109 15.5707 12.7109 16.707V21.203C12.7109 21.8947 12.5627 22.4134 12.2663 22.7593C11.9204 23.1051 11.3028 23.3274 10.4382 23.4016V25.526C11.3028 25.5754 11.9204 25.7977 12.2663 26.193C12.5627 26.4894 12.7109 27.0082 12.7109 27.7246V32.2452C12.7109 33.3569 12.9826 34.2462 13.5261 34.9131C14.119 35.6295 14.9836 36.0001 16.1199 36.0001H18.0715V33.8509H16.614C15.7247 33.8509 15.28 33.3322 15.28 32.344V27.5764C15.28 26.0942 14.5636 25.0567 13.1309 24.4638C14.5636 23.945 15.28 22.9075 15.28 21.3512V16.6082C15.28 15.5707 15.7247 15.0767 16.614 15.0767H18.0715V12.9275ZM30.8924 12.9275H32.8439C33.9556 12.9275 34.8202 13.2733 35.4377 14.0144C35.9812 14.6814 36.2529 15.5707 36.2529 16.707V21.203C36.2529 21.8947 36.4011 22.4381 36.7223 22.784C37.0434 23.1298 37.6363 23.3274 38.5256 23.4016V25.526C37.6363 25.5754 37.0434 25.7977 36.6976 26.193C36.4011 26.4894 36.2529 27.0082 36.2529 27.7246V32.2452C36.2529 33.3569 35.9812 34.2462 35.4377 34.9131C34.8202 35.6295 33.9556 36.0001 32.8439 36.0001H30.8924V33.8509H32.3499C33.2392 33.8509 33.6838 33.3322 33.6838 32.344V27.5764C33.6838 26.0942 34.4002 25.0567 35.833 24.4638C34.4002 23.945 33.6838 22.9075 33.6838 21.3512V16.6082C33.6838 15.5707 33.2392 15.0767 32.3499 15.0767H30.8924V12.9275ZM24.5434 22.6606C25.0375 22.6606 25.4574 22.8335 25.8033 23.1793C26.1491 23.5252 26.3468 23.9698 26.3468 24.4639C26.3468 24.958 26.1491 25.3779 25.8033 25.7238C25.4574 26.0696 25.0375 26.2425 24.5434 26.2425C24.0494 26.2425 23.6294 26.0696 23.2836 25.7238C22.913 25.3779 22.7401 24.958 22.7401 24.4639C22.7401 23.9698 22.913 23.5252 23.2836 23.1793C23.6294 22.8335 24.0494 22.6606 24.5434 22.6606ZM31.4854 23.1793C31.1396 22.8335 30.7196 22.6606 30.2256 22.6606C29.7315 22.6606 29.3115 22.8335 28.9657 23.1793C28.5952 23.5252 28.4222 23.9698 28.4222 24.4639C28.4222 24.958 28.5952 25.3779 28.9657 25.7238C29.3115 26.0696 29.7315 26.2425 30.2256 26.2425C30.7196 26.2425 31.1396 26.0696 31.4854 25.7238C31.8313 25.3779 32.0289 24.958 32.0289 24.4639C32.0289 23.9698 31.8313 23.5252 31.4854 23.1793ZM18.8618 22.6606C19.3559 22.6606 19.7758 22.8335 20.1217 23.1793C20.4675 23.5252 20.6651 23.9698 20.6651 24.4639C20.6651 24.958 20.4675 25.3779 20.1217 25.7238C19.7758 26.0696 19.3559 26.2425 18.8618 26.2425C18.3677 26.2425 17.9478 26.0696 17.602 25.7238C17.2314 25.3779 17.0585 24.958 17.0585 24.4639C17.0585 23.9698 17.2314 23.5252 17.602 23.1793C17.9478 22.8335 18.3677 22.6606 18.8618 22.6606Z" fill="white"/>
</g>
</svg>
