<svg width="48" height="48" viewBox="0 0 48 48" fill="none" xmlns="http://www.w3.org/2000/svg">
<rect width="48" height="48" fill="#808080"/>
<g clip-path="url(#clip0_2770_1435)">
<path d="M24 39L36.125 32L31.5 29.3125L26.75 32.0625C26.5625 32.1875 26.375 32.0625 26.375 31.8125V25.3125C26.375 25.125 26.5 24.9375 26.625 24.875L32.25 21.625C32.4375 21.5 32.625 21.625 32.625 21.875V27.375L37.25 30.0625V16L24 23.6875V39Z" fill="#C0C0C0"/>
<path d="M25.1875 9V14.375L29.9375 17.125C30.125 17.25 30.125 17.5 29.9375 17.5625L24.3125 20.8125C24.125 20.9375 23.9375 20.875 23.8125 20.8125L18.1875 17.5625C18 17.5 18 17.1875 18.1875 17.125L22.9375 14.375V9L10.75 16L24 23.6875L37.25 16L25.1875 9Z" fill="white"/>
<path d="M21.3125 32.0625L16.5625 29.3125L11.9375 32L24.0625 39V23.6875L10.75 16V30L15.375 27.3125V21.8125C15.375 21.625 15.625 21.5 15.75 21.5625L21.375 24.8125C21.5625 24.9375 21.625 25.0625 21.625 25.25V31.75C21.6875 32 21.5 32.1875 21.3125 32.0625Z" fill="#E7E7E7"/>
</g>
<defs>
<clipPath id="clip0_2770_1435">
<rect width="30" height="30" fill="white" transform="translate(9 9)"/>
</clipPath>
</defs>
</svg>
